HIERARCHY
ROOT root
{
	OFFSET 0.000000 0.000000 0.000000
	CHANNELS 6 Xposition Yposition Zposition Zrotation Yrotation Xrotation
	JOINT lhip
	{
		OFFSET 0.058581 -0.082280 -0.017664
		CHANNELS 3 Zrotation Yrotation Xrotation
		JOINT lknee
		{
			OFFSET 0.043451 -0.386469 0.008037
			CHANNELS 3 Zrotation Yrotation Xrotation
			JOINT lankle
			{
				OFFSET -0.014790 -0.426874 -0.037428
				CHANNELS 3 Zrotation Yrotation Xrotation
				JOINT ltoe
				{
					OFFSET 0.041054 -0.060286 0.122042
					CHANNELS 3 Zrotation Yrotation Xrotation
					End Site
					{
						OFFSET 0.000000 0.000000 0.000000
					}
				}
			}
		}
	}
	JOINT rhip
	{
		OFFSET -0.060310 -0.090513 -0.013543
		CHANNELS 3 Zrotation Yrotation Xrotation
		JOINT rknee
		{
			OFFSET -0.043257 -0.383688 -0.004843
			CHANNELS 3 Zrotation Yrotation Xrotation
			JOINT rankle
			{
				OFFSET 0.019056 -0.420046 -0.034562
				CHANNELS 3 Zrotation Yrotation Xrotation
				JOINT rtoe
				{
					OFFSET -0.034840 -0.062106 0.130323
					CHANNELS 3 Zrotation Yrotation Xrotation
					End Site
					{
						OFFSET 0.000000 0.000000 0.000000
					}
				}
			}
		}
	}
	JOINT lowerback
	{
		OFFSET 0.004439 0.124404 -0.038385
		CHANNELS 3 Zrotation Yrotation Xrotation
		JOINT upperback
		{
			OFFSET 0.004488 0.137956 0.026820
			CHANNELS 3 Zrotation Yrotation Xrotation
			JOINT chest
			{
				OFFSET -0.002265 0.056032 0.002855
				CHANNELS 3 Zrotation Yrotation Xrotation
				JOINT lowerneck
				{
					OFFSET -0.013390 0.211636 -0.033468
					CHANNELS 3 Zrotation Yrotation Xrotation
					JOINT upperneck
					{
						OFFSET 0.010113 0.088937 0.050410
						CHANNELS 3 Zrotation Yrotation Xrotation
						End Site
						{
							OFFSET 0.000000 0.000000 0.000000
						}
					}
				}
				JOINT lclavicle
				{
					OFFSET 0.071702 0.114000 -0.018898
					CHANNELS 3 Zrotation Yrotation Xrotation
					JOINT lshoulder
					{
						OFFSET 0.122921 0.045205 -0.019046
						CHANNELS 3 Zrotation Yrotation Xrotation
						JOINT lelbow
						{
							OFFSET 0.255332 -0.015649 -0.022946
							CHANNELS 3 Zrotation Yrotation Xrotation
							JOINT lwrist
							{
								OFFSET 0.265709 0.012698 -0.007375
								CHANNELS 3 Zrotation Yrotation Xrotation
								End Site
								{
									OFFSET 0.000000 0.000000 0.000000
								}
							}
						}
					}
				}
				JOINT rclavicle
				{
					OFFSET -0.082954 0.112472 -0.023707
					CHANNELS 3 Zrotation Yrotation Xrotation
					JOINT rshoulder
					{
						OFFSET -0.113228 0.046853 -0.008472
						CHANNELS 3 Zrotation Yrotation Xrotation
						JOINT relbow
						{
							OFFSET -0.260127 -0.014369 -0.031269
							CHANNELS 3 Zrotation Yrotation Xrotation
							JOINT rwrist
							{
								OFFSET -0.269108 0.006794 -0.006027
								CHANNELS 3 Zrotation Yrotation Xrotation
								End Site
								{
									OFFSET 0.000000 0.000000 0.000000
								}
							}
						}
					}
				}
			}
		}
	}
}
MOTION
Frames: 13
Frame Time: 0.033333
-1.307615 0.230474 0.924720 0.269209 -4.722705 93.153687 12.107902 -0.779132 -32.295733 -15.640577 -6.555721 49.895725 -5.111450 -4.615176 -11.694859 0.000000 -0.000000 0.000000 -19.725044 -4.867593 -27.504440 -1.214083 0.045209 35.390354 8.256824 -3.983029 -9.699632 0.000000 -0.000000 0.000000 4.005842 1.980269 30.463505 6.096395 2.669013 3.731696 3.723337 2.996658 -0.426455 -1.096096 -4.672100 4.426285 -5.453628 -4.936905 11.096039 -29.032480 3.507822 3.117198 -51.151047 0.519513 9.764829 14.083241 -53.076043 7.671368 10.509908 -4.222714 -12.183688 31.964508 15.248617 8.297472 28.697519 25.390748 -10.455093 -21.630011 9.454228 -50.262443 -13.632213 0.700467 -18.958656 
-1.265892 0.225439 0.919411 1.296580 -3.163104 92.693318 10.902571 0.582597 -32.673468 -15.960775 -5.800449 52.646535 -4.546916 -7.836680 -12.413359 0.000000 -0.000000 0.000000 -20.551296 -7.062266 -24.564902 -1.462675 -0.047952 31.694682 9.789123 -2.743804 -7.111987 0.000000 -0.000000 0.000000 7.050163 1.038197 28.928762 5.931731 1.375354 5.082762 2.660614 2.311899 -0.348389 -1.785539 -5.305930 4.691408 -5.818275 -3.250401 10.857535 -29.967358 4.251231 2.793560 -51.690826 1.442434 8.104655 11.830027 -51.734095 9.499800 3.047933 -5.433236 -12.587264 31.580116 12.891621 7.117409 27.892279 23.957180 -13.957696 -21.135557 8.772436 -58.543132 -9.674199 1.748122 -22.579337 
-1.223030 0.223791 0.916211 0.218846 -2.945377 93.045952 7.452304 -0.657107 -31.926745 -13.305960 -4.121885 51.807751 -0.049692 -4.054439 -16.902144 0.000000 -0.000000 0.000000 -22.441222 -7.539843 -22.961129 -1.510341 1.674853 26.779020 12.613032 -3.303377 -2.520544 0.000000 -0.000000 0.000000 6.858933 0.690330 28.540305 5.295366 1.011601 3.319812 2.403969 2.250515 1.091552 -3.055648 -5.527765 4.732107 -5.723552 0.250046 10.618214 -29.882343 5.413315 3.030426 -52.303760 1.572670 7.317140 9.874999 -48.854025 10.429869 7.074452 -5.488617 -9.453516 31.197122 11.600389 6.487306 28.308028 21.959597 -13.749170 -21.969638 9.182816 -62.349231 -3.232881 4.391866 -25.597430 
-1.170251 0.222516 0.916628 -2.758133 -0.439776 92.363464 6.904858 1.572990 -29.571135 -13.314144 -3.026010 50.439849 2.682395 -3.357639 -20.505111 0.000000 -0.000000 0.000000 -21.021093 -7.284992 -21.853126 -3.269800 3.636887 22.001311 13.975136 -3.830163 5.803287 0.000000 -0.000000 0.000000 7.809114 1.350982 29.043081 5.292553 1.632934 2.793680 2.693154 1.876186 1.249257 -3.495209 -5.239466 4.440459 -6.070860 2.762589 11.469981 -29.257035 5.862521 3.168460 -54.231171 2.815472 6.108805 6.738517 -45.359218 14.249208 -2.324315 -6.940005 -9.087125 29.136305 9.651742 4.954539 30.792125 19.073796 -12.893869 -26.260746 13.784965 -64.362325 8.568916 11.974201 -34.264073 
-1.136461 0.222550 0.919272 -3.890276 -0.008712 92.525120 5.183488 -0.148326 -28.351328 -13.064273 -3.628581 48.251092 4.971855 -1.726034 -21.799267 0.000000 -0.000000 0.000000 -21.102208 -5.819620 -22.072865 -4.214977 2.938791 20.434470 11.723668 -7.870108 11.266351 0.000000 -0.000000 0.000000 7.272274 1.139299 27.994019 5.322180 1.646921 2.089219 2.801133 2.067447 2.491807 -3.938248 -4.830644 4.884449 -6.183974 5.132480 11.224511 -28.535253 6.487504 3.301246 -55.333236 2.874132 6.146403 5.323824 -43.514404 16.175175 -2.329005 -6.508743 -7.739747 28.676978 7.554431 4.003402 32.193102 17.739440 -10.982960 -31.455221 18.633274 -66.990654 12.350624 14.235290 -37.452644 
-1.096556 0.222538 0.928749 -5.303465 1.019367 92.157993 4.677861 1.770960 -26.173279 -14.208987 -2.296620 44.411168 6.378368 -2.187740 -20.500877 0.000000 -0.000000 0.000000 -18.581077 -5.705150 -22.881063 -4.000449 2.822813 22.730917 7.622505 -8.765546 10.400463 0.000000 -0.000000 0.000000 6.949180 1.272745 27.187566 5.870931 1.598580 1.765803 2.863287 1.301128 3.665996 -4.481085 -3.345441 4.594407 -6.362797 6.166639 12.152731 -27.601219 7.963734 2.371986 -56.491104 4.230372 5.326067 4.017714 -42.809568 19.103412 1.034486 -5.391516 -6.504478 28.200179 4.903785 2.775146 34.337646 17.114723 -9.458639 -41.241775 26.501373 -68.269739 14.832602 14.549484 -40.830916 
-1.060939 0.228034 0.946507 -4.584763 0.975839 92.430277 -0.223177 -1.204702 -24.113586 -9.661546 -5.325910 38.980587 6.882045 0.132003 -17.838335 0.000000 -0.000000 0.000000 -15.757459 -5.273018 -24.244676 -3.708466 1.191763 28.644472 6.440840 -8.037782 3.722423 0.000000 -0.000000 0.000000 6.075281 1.319562 26.434285 6.343579 0.616271 1.637287 2.560839 0.817654 3.991628 -3.204639 -0.585031 4.783488 -7.444165 5.390367 12.430305 -27.324558 8.447290 2.728421 -56.306513 4.632224 4.885379 4.991406 -43.408838 18.107583 -4.587550 -5.280732 -8.038956 29.417831 2.512925 1.056495 35.610727 16.172902 -7.628418 -53.514543 32.232814 -71.727251 17.390147 16.236071 -40.130113 
-1.026428 0.235147 0.971918 -2.288604 0.170117 92.906459 -2.769370 -1.437674 -22.245524 -9.076566 -6.653954 32.453065 4.063349 -3.303560 -9.876750 0.000000 -0.000000 0.000000 -12.815909 -4.541301 -24.214093 -3.652072 -1.735893 32.715136 5.134119 -8.518277 1.134886 0.000000 -0.000000 0.000000 5.680873 0.488476 26.017396 6.394355 -0.647219 1.407042 2.002398 0.288696 4.250965 -4.054951 2.339004 4.990651 -7.481814 5.907557 11.522814 -27.597388 8.614109 2.127468 -55.600402 4.795528 4.526372 6.809682 -43.471129 15.030511 -1.711209 -5.046002 -7.000926 29.820659 0.381657 -0.283155 38.030241 14.891821 -5.225130 -67.850294 36.964410 -79.708616 14.338571 16.316159 -40.052954 
-0.993680 0.244660 1.001104 1.046098 -1.099854 93.965500 -4.104737 -1.560552 -20.899842 -10.033673 -6.238235 24.906260 -2.850398 -7.524598 1.853855 0.000000 -0.000000 0.000000 -10.445056 -4.148838 -24.406806 -3.637984 -8.278995 35.487793 6.366698 -7.715492 2.102167 0.000000 -0.000000 0.000000 5.207966 -0.286893 25.337487 6.650210 -1.877764 2.078434 1.587871 -0.085180 3.002665 -4.246066 3.801449 6.438627 -7.398235 4.698859 9.475161 -27.447187 7.942509 1.400831 -55.139177 5.059639 4.617929 8.672026 -44.274264 11.621944 -4.702897 -5.292004 -5.636132 29.040713 -1.619034 -0.871205 41.209290 13.321578 -3.632886 -83.332635 39.202156 -88.053327 12.693608 16.752547 -38.217957 
-0.953933 0.256287 1.033260 4.971095 -1.581343 94.214503 -4.147630 1.189458 -19.639394 -8.033519 -7.007776 17.976431 -26.155550 -13.629682 16.162715 0.000000 -0.000000 0.000000 -5.734577 -4.749463 -23.730690 -4.632801 -14.954050 37.398582 9.397157 -1.317077 5.804948 0.000000 -0.000000 0.000000 5.937115 -0.590908 26.095621 6.551167 -3.857764 3.296921 1.368872 0.412024 0.457571 -3.290596 6.400535 8.991176 -6.356414 1.941066 5.551663 -26.775656 5.831503 0.604149 -55.421322 6.336061 3.986660 11.776825 -46.767602 7.599786 -10.624866 -6.071639 -2.472301 28.000983 -2.951234 -1.629605 43.187991 10.562296 -5.341998 -102.544937 41.968470 -95.018309 14.161961 16.547509 -29.371038 
-0.922897 0.264864 1.046871 6.036781 -2.100594 94.705444 -2.783775 1.057360 -19.618985 -6.539344 -6.157980 16.161931 -22.891778 -11.045899 8.705538 0.000000 -0.000000 0.000000 -2.760014 -3.719772 -23.584100 -2.342928 -13.702381 37.435022 13.572190 2.774967 9.411873 0.000000 -0.000000 0.000000 5.517283 -0.270347 25.315758 6.283247 -4.155458 3.406012 1.106553 0.233782 0.230225 -2.525087 6.944602 10.094091 -5.533353 1.453431 4.351688 -25.890467 6.039116 -0.062645 -54.895934 6.888041 3.250754 11.241665 -49.795659 7.474503 -11.237575 -6.488389 -1.796087 26.495293 -4.265268 -2.033971 44.483587 10.319405 -4.810043 -116.057446 43.300739 -99.394111 17.134758 15.228281 -19.982275 
-0.892358 0.274530 1.048098 5.341583 -3.990823 94.910809 -0.513757 -1.463500 -19.088960 -5.873101 -0.797513 15.766906 -13.684466 -6.758629 -0.436803 0.000000 -0.000000 0.000000 -2.344054 -1.887052 -23.125082 -0.169808 -10.494949 36.841976 15.402431 2.493444 10.100705 0.000000 -0.000000 0.000000 2.178232 0.701710 24.715696 5.969435 -3.681806 2.787763 0.928102 0.611029 1.396014 -0.987170 7.694688 9.336220 -5.095099 1.219208 5.078574 -24.373214 7.365032 0.213504 -54.320282 5.728148 4.029191 11.674478 -52.658960 6.876784 -7.777171 -6.735230 -2.580781 25.966943 -5.737717 -4.007316 44.791186 11.785349 -0.714487 -125.598537 44.690568 -103.113240 18.656952 13.520783 -12.786831 
-0.860052 0.283544 1.037608 6.087925 -5.391937 94.710150 2.305223 -1.863517 -20.198777 -6.733527 -2.241345 19.851794 -11.529316 -6.694232 -3.340214 0.000000 -0.000000 0.000000 -2.118025 -1.924136 -21.157904 -0.888126 -8.635203 34.684762 12.668936 -1.340007 8.978523 0.000000 -0.000000 0.000000 0.688780 1.440773 24.042173 5.427655 -4.064111 2.698197 0.982701 0.323029 1.929421 -1.030671 7.345740 7.957898 -4.197252 1.902628 6.408695 -23.866465 6.916473 0.295586 -53.307775 6.043601 3.891745 12.048024 -55.021352 6.227135 -5.991002 -6.552781 -4.498448 25.290289 -4.569074 -5.379123 43.668258 12.293004 2.332918 -133.113298 46.531641 -107.358530 19.389697 11.396541 -6.156812 
